<?xml version="1.0" standalone="no"?>
<!DOCTYPE svg PUBLIC "-//W3C//DTD SVG 20010904//EN"
 "http://www.w3.org/TR/2001/REC-SVG-20010904/DTD/svg10.dtd">
<svg version="1.0" xmlns="http://www.w3.org/2000/svg"
 width="250.000000pt" height="250.000000pt" viewBox="0 0 250.000000 250.000000"
 preserveAspectRatio="xMidYMid meet">
<metadata>
Created by potrace 1.11, written by Peter Selinger 2001-2013
</metadata>
<g transform="translate(0.000000,250.000000) scale(0.100000,-0.100000)"
fill="#000000" stroke="none">
<path d="M1138 2486 c-1 -2 -37 -6 -78 -10 -64 -5 -105 -13 -210 -40 -164 -42
-398 -218 -503 -378 -44 -66 -101 -178 -112 -218 -22 -82 -48 -149 -100 -255
-91 -185 -109 -263 -109 -450 1 -121 5 -165 23 -229 74 -273 263 -503 516
-628 28 -14 100 -42 160 -62 61 -20 126 -46 145 -56 51 -28 150 -75 185 -88
72 -28 257 -57 330 -54 258 14 485 116 658 296 121 125 177 221 243 418 23 71
51 140 61 155 42 60 98 201 109 271 3 21 9 41 12 47 3 5 7 65 8 132 2 122 -17
254 -47 328 -7 17 -13 35 -14 40 -6 26 -65 136 -102 190 -62 92 -130 163 -218
228 -100 74 -180 114 -320 161 -100 33 -202 79 -215 96 -3 4 -23 13 -45 20
-22 7 -44 16 -50 20 -23 16 -156 47 -245 56 -30 3 -60 7 -67 9 -6 2 -13 2 -15
1z m287 -681 c197 -148 418 -511 407 -669 -7 -98 -321 -352 -532 -430 -126
-47 -175 -50 -224 -12 -168 131 -342 385 -396 577 -26 96 -18 126 58 204 167
172 343 288 517 339 33 10 65 19 70 21 22 6 72 -9 100 -30z"/>
</g>
</svg>
